<mxfile host="app.diagrams.net" modified="2023-04-25T15:33:57.959Z" agent="Mozilla/5.0 (Windows NT 10.0; Win64; x64) AppleWebKit/537.36 (KHTML, like Gecko) Chrome/112.0.0.0 Safari/537.36" etag="17z9dCqHhDwdf2hKFf_m" version="21.2.1" type="device">
  <diagram name="Page-1" id="332yKHlt1ZzFbt2__w06">
    <mxGraphModel dx="1050" dy="549" grid="1" gridSize="10" guides="1" tooltips="1" connect="1" arrows="1" fold="1" page="1" pageScale="1" pageWidth="827" pageHeight="1169" math="0" shadow="0">
      <root>
        <mxCell id="0" />
        <mxCell id="1" parent="0" />
        <mxCell id="6yGXLz9c3ERWJ2VqOsIL-3" value="" style="edgeStyle=orthogonalEdgeStyle;rounded=0;orthogonalLoop=1;jettySize=auto;html=1;labelBackgroundColor=none;strokeColor=#0B4D6A;fontColor=default;" edge="1" parent="1" source="6yGXLz9c3ERWJ2VqOsIL-1" target="6yGXLz9c3ERWJ2VqOsIL-2">
          <mxGeometry relative="1" as="geometry" />
        </mxCell>
        <mxCell id="6yGXLz9c3ERWJ2VqOsIL-1" value="&lt;font size=&quot;1&quot; style=&quot;&quot;&gt;&lt;b style=&quot;font-size: 14px;&quot;&gt;Concepto te贸rico&lt;/b&gt;&lt;/font&gt;" style="rounded=0;whiteSpace=wrap;html=1;labelBackgroundColor=none;fillColor=#09555B;strokeColor=#BAC8D3;fontColor=#EEEEEE;" vertex="1" parent="1">
          <mxGeometry x="350" y="40" width="140" height="60" as="geometry" />
        </mxCell>
        <mxCell id="6yGXLz9c3ERWJ2VqOsIL-5" value="" style="edgeStyle=orthogonalEdgeStyle;rounded=0;orthogonalLoop=1;jettySize=auto;html=1;labelBackgroundColor=none;strokeColor=#0B4D6A;fontColor=default;" edge="1" parent="1" source="6yGXLz9c3ERWJ2VqOsIL-2" target="6yGXLz9c3ERWJ2VqOsIL-4">
          <mxGeometry relative="1" as="geometry" />
        </mxCell>
        <mxCell id="6yGXLz9c3ERWJ2VqOsIL-2" value="&lt;font size=&quot;1&quot; style=&quot;&quot;&gt;&lt;b style=&quot;font-size: 14px;&quot;&gt;Definici贸n de atributos&lt;/b&gt;&lt;/font&gt;" style="rounded=0;whiteSpace=wrap;html=1;labelBackgroundColor=none;fillColor=#09555B;strokeColor=#BAC8D3;fontColor=#EEEEEE;" vertex="1" parent="1">
          <mxGeometry x="350" y="140" width="140" height="60" as="geometry" />
        </mxCell>
        <mxCell id="6yGXLz9c3ERWJ2VqOsIL-7" value="" style="edgeStyle=orthogonalEdgeStyle;rounded=0;orthogonalLoop=1;jettySize=auto;html=1;labelBackgroundColor=none;strokeColor=#0B4D6A;fontColor=default;" edge="1" parent="1" source="6yGXLz9c3ERWJ2VqOsIL-4" target="6yGXLz9c3ERWJ2VqOsIL-6">
          <mxGeometry relative="1" as="geometry" />
        </mxCell>
        <mxCell id="6yGXLz9c3ERWJ2VqOsIL-4" value="&lt;font style=&quot;font-size: 14px;&quot;&gt;&lt;b&gt;Selecci贸n de indicadores y variables&lt;/b&gt;&lt;/font&gt;" style="rounded=0;whiteSpace=wrap;html=1;labelBackgroundColor=none;fillColor=#09555B;strokeColor=#BAC8D3;fontColor=#EEEEEE;" vertex="1" parent="1">
          <mxGeometry x="350" y="250" width="140" height="60" as="geometry" />
        </mxCell>
        <mxCell id="6yGXLz9c3ERWJ2VqOsIL-6" value="&lt;b&gt;&lt;font style=&quot;font-size: 14px;&quot;&gt;Agregaci贸n&lt;/font&gt;&lt;/b&gt;" style="rounded=0;whiteSpace=wrap;html=1;labelBackgroundColor=none;fillColor=#09555B;strokeColor=#BAC8D3;fontColor=#EEEEEE;" vertex="1" parent="1">
          <mxGeometry x="350" y="350" width="140" height="60" as="geometry" />
        </mxCell>
      </root>
    </mxGraphModel>
  </diagram>
</mxfile>
